<?xml version="1.0" standalone="no"?>
<!DOCTYPE svg PUBLIC "-//W3C//DTD SVG 20010904//EN"
 "http://www.w3.org/TR/2001/REC-SVG-20010904/DTD/svg10.dtd">
<svg version="1.0" xmlns="http://www.w3.org/2000/svg"
 width="40px" height="40px" viewBox="0 0 200.000000 200.000000"
 preserveAspectRatio="xMidYMid meet">

<g transform="translate(0.000000,200.000000) scale(0.100000,-0.100000)"
fill="#000" stroke="none">
<path d="M0 1000 l0 -1000 1000 0 1000 0 0 1000 0 1000 -1000 0 -1000 0 0
-1000z m309 416 l26 -26 5 -283 c4 -248 7 -286 23 -310 28 -43 73 -61 152 -62
82 0 128 21 160 75 19 33 20 55 23 328 l3 293 27 10 c43 17 128 13 162 -8 48
-28 52 -59 48 -354 -5 -298 -11 -325 -78 -402 -43 -49 -130 -98 -205 -117 -78
-19 -229 -15 -302 8 -126 40 -195 98 -232 197 -20 52 -21 75 -21 360 0 189 4
306 10 310 20 13 97 21 134 14 21 -4 50 -19 65 -33z m1362 12 c134 -50 202
-139 202 -266 0 -39 -6 -82 -15 -103 -21 -48 -78 -110 -122 -134 -20 -11 -36
-22 -36 -25 0 -3 47 -57 105 -120 58 -63 105 -123 105 -132 0 -29 -49 -77 -92
-89 -76 -20 -111 3 -245 162 l-118 139 -62 0 -63 0 0 -140 0 -140 -27 -11
c-44 -16 -129 -13 -162 7 -17 10 -35 31 -41 47 -6 18 -10 164 -10 374 0 367 4
398 50 423 53 28 146 40 305 36 141 -3 168 -6 226 -28z"/>
<path d="M1353 1274 c-22 -5 -23 -9 -23 -115 l0 -109 103 0 c128 0 179 19 196
73 12 36 7 81 -12 105 -20 25 -80 42 -161 46 -44 3 -91 2 -103 0z"/>
</g>
</svg>
