<?xml version="1.0" encoding="UTF-8"?>
<svg version="1.1" xmlns="http://www.w3.org/2000/svg" width="500" height="500">
<path d="M0 0 C3.01008463 0.09864976 6.01937786 0.13280308 9.03079891 0.16479015 C59.97791047 0.71168385 59.97791047 0.71168385 77.96270752 17.09710693 C84.84180071 24.19397403 89.23597362 33.18007348 89.81036377 43.13616943 C89.89286377 44.35304443 89.97536377 45.56991943 90.06036377 46.82366943 C89.78806755 60.95584331 83.124452 73.65272014 73.52130127 83.65960693 C66.77319288 89.82430538 59.1174385 93.55024224 50.81036377 97.13616943 C51.35338135 97.22592041 51.89639893 97.31567139 52.45587158 97.40814209 C69.61584337 100.32381229 84.29583936 104.53508147 95.06036377 119.26116943 C101.8234251 130.26993038 104.18234611 142.41133535 104.81036377 155.13616943 C103.81036377 156.13616943 103.81036377 156.13616943 100.94293213 156.24969482 C99.69133301 156.24445801 98.43973389 156.23922119 97.15020752 156.23382568 C96.15350792 156.23170326 96.15350792 156.23170326 95.13667297 156.22953796 C93.00702478 156.22392462 90.87748038 156.21136997 88.74786377 156.19866943 C87.30711008 156.19365615 85.86635474 156.18909294 84.42559814 156.18499756 C80.88715275 156.17395088 77.34876838 156.15667735 73.81036377 156.13616943 C73.56536133 155.08743652 73.32035889 154.03870361 73.06793213 152.95819092 C69.81700907 139.34028557 64.64991211 129.34041666 52.43145752 121.63616943 C37.89787385 113.79783217 21.85259096 113.95501505 5.81036377 114.13616943 C8.05395015 111.63331226 10.13689573 110.35164586 13.20489502 109.00726318 C14.07162842 108.61732178 14.93836182 108.22738037 15.83135986 107.82562256 C16.75255615 107.41247803 17.67375244 106.9993335 18.62286377 106.57366943 C34.02802724 99.41534198 46.86608203 91.92290949 53.18536377 75.32366943 C56.67186835 65.06121899 58.03465505 51.79863104 54.18536377 41.44866943 C49.11635842 31.18745374 40.83838255 25.69353889 30.18536377 21.94866943 C23.65208531 20.11068513 17.08002903 19.31783141 10.34942627 18.52288818 C9.2380127 18.38797974 8.12659912 18.25307129 6.98150635 18.11407471 C4.25824931 17.7840938 1.53456594 17.45823798 -1.18963623 17.13616943 C-1.22055862 18.6199987 -1.22055862 18.6199987 -1.25210571 20.13380432 C-1.51556722 32.73892048 -1.78715888 45.34385414 -2.06463623 57.94866943 C-2.0866787 58.95021057 -2.10872116 59.95175171 -2.13143158 60.98364258 C-2.83250987 92.71812352 -3.74545622 124.42566364 -5.18963623 156.13616943 C-15.08963623 156.13616943 -24.98963623 156.13616943 -35.18963623 156.13616943 C-34.81632779 143.98977322 -34.44254742 131.84339177 -34.06799412 119.69703388 C-33.89398784 114.05362604 -33.72016794 108.41021259 -33.54681396 102.76678467 C-33.12743556 89.11784737 -32.70379926 75.4690524 -32.27390289 61.8204422 C-32.19526575 59.3154949 -32.11743555 56.81052412 -32.03991699 54.30554199 C-31.91522461 50.28411265 -31.78542894 46.26286862 -31.65447998 42.24163818 C-31.62117081 41.15216385 -31.58786163 40.06268951 -31.55354309 38.94020081 C-31.31967778 31.96022891 -30.77132349 25.11641659 -30.18963623 18.13616943 C-40.08963623 18.13616943 -49.98963623 18.13616943 -60.18963623 18.13616943 C-42.66614059 0.61267379 -23.18159657 -0.87748297 0 0 Z " fill="#090909" transform="translate(198.18963623046875,119.86383056640625)"/>
<path d="M0 0 C3.63267407 3.54120386 6.99375881 7.23308059 10.25 11.125 C10.73106201 11.69484619 11.21212402 12.26469238 11.70776367 12.85180664 C14.63802739 16.33370644 17.48562055 19.87087639 20.3125 23.4375 C35.65943745 42.20398679 57.38370294 62.47550214 82.375 65.9375 C88.83395424 66.3674738 94.82220718 64.73842501 101 63 C95.93696298 74.29830429 82.16133931 82.7020909 71 87 C59.35747723 88.82627808 46.27485678 79.40542656 37 73 C31.46506365 68.9115589 26.20320871 64.49925328 21 60 C20.44683105 59.52272461 19.89366211 59.04544922 19.32373047 58.55371094 C5.37832741 46.40813241 -8.17285934 32.02312596 -19 17 C-17.58229423 13.51542846 -16.06936531 12.11858844 -12.875 10.1875 C-8.16802162 7.20463363 -4.09240176 3.76902396 0 0 Z " fill="#0E0E0E" transform="translate(290,325)"/>
<path d="M0 0 C9.24 0 18.48 0 28 0 C26.86885246 9.04918033 26.86885246 9.04918033 24.625 13.3125 C24.20476562 14.13363281 23.78453125 14.95476562 23.3515625 15.80078125 C22.07197332 17.88288734 20.74823566 19.31719503 19 21 C31.73954692 22.43978734 44.42568501 23.22745254 57.2427063 23.29956055 C58.69593139 23.30812807 60.14913627 23.32172965 61.6022644 23.34057617 C73.63761323 23.48029488 82.15399494 22.14385069 91.4375 13.8125 C97.35477681 7.36216647 97.35477681 7.36216647 102 0 C109.59 0 117.18 0 125 0 C117.45191075 15.0961785 95.70061329 23.65119859 80.41748047 28.88427734 C61.44168681 34.9662175 42.36221693 38.20126179 22.42578125 38.09765625 C20.85101265 38.09553383 20.85101265 38.09553383 19.24443054 38.09336853 C15.93375643 38.0878288 12.62315322 38.07528803 9.3125 38.0625 C7.05013119 38.05747719 4.78776131 38.05291566 2.52539062 38.04882812 C-2.98309658 38.03787921 -8.49154322 38.02120246 -14 38 C-13.21882812 37.39414062 -12.43765625 36.78828125 -11.6328125 36.1640625 C-3.05896074 29.11671254 -1.9225406 18.76333967 -0.8125 8.375 C-0.544375 5.61125 -0.27625 2.8475 0 0 Z " fill="#141414" transform="translate(162,312)"/>
<path d="M0 0 C-0.04478065 4.05342047 -0.11524148 8.10557948 -0.20751953 12.15820312 C-0.2354011 13.53112994 -0.25677527 14.90420749 -0.27099609 16.27734375 C-0.40485674 28.4854344 -2.40453781 38.63570228 -9 49 C8.08202026 47.64067839 8.08202026 47.64067839 25 45 C21.2486908 48.99471475 17.30458009 52.09170532 12.75 55.125 C12.13253906 55.55425781 11.51507813 55.98351562 10.87890625 56.42578125 C0.47354471 63.3984462 -9.41207578 63.38759502 -21.5625 63.1875 C-23.15949259 63.17242639 -24.75649894 63.15874272 -26.35351562 63.14648438 C-30.23602124 63.11368925 -34.11785633 63.06205574 -38 63 C-37.5980542 62.46600586 -37.1961084 61.93201172 -36.78198242 61.38183594 C-35.98304565 60.31884277 -35.98304565 60.31884277 -35.16796875 59.234375 C-34.64227295 58.53538086 -34.11657715 57.83638672 -33.57495117 57.11621094 C-24.4219198 44.8175788 -23.10133614 31.47440214 -22.4375 16.5 C-22.39431641 15.5821875 -22.35113281 14.664375 -22.30664062 13.71875 C-22.20166544 11.47927939 -22.09950752 9.23971908 -22 7 C-17.23080006 5.19473885 -12.4603538 3.43464311 -7.625 1.8125 C-6.60664063 1.46832031 -5.58828125 1.12414062 -4.5390625 0.76953125 C-2 0 -2 0 0 0 Z " fill="#0E0E0E" transform="translate(252,349)"/>
<path d="M0 0 C-19.27777778 13 -19.27777778 13 -26 13 C-26.23976563 13.70253906 -26.47953125 14.40507812 -26.7265625 15.12890625 C-30.58167211 23.8206411 -38.34809222 31.54272126 -44.4375 38.8125 C-45.19909424 39.73760376 -45.19909424 39.73760376 -45.97607422 40.68139648 C-47.25106184 42.17998746 -48.61925893 43.59824309 -50 45 C-50.99 45 -51.98 45 -53 45 C-54.20677309 40.68380427 -55.07641603 36.4035043 -53.18017578 32.16943359 C-51.34672636 28.9912892 -49.25483499 26.03336361 -47.1015625 23.06640625 C-44.76178704 20.03423865 -44.76178704 20.03423865 -44 16 C-52.415 16.495 -52.415 16.495 -61 17 C-61.33 15.68 -61.66 14.36 -62 13 C-59.79547458 11.70144393 -57.58676704 10.41111805 -55.375 9.125 C-54.75753906 8.76019531 -54.14007813 8.39539063 -53.50390625 8.01953125 C-52.89160156 7.66503906 -52.27929688 7.31054688 -51.6484375 6.9453125 C-51.09333496 6.62062988 -50.53823242 6.29594727 -49.96630859 5.96142578 C-45.18607902 3.62413449 -40.74494166 2.72521497 -35.45703125 2.4375 C-34.21759766 2.36273438 -32.97816406 2.28796875 -31.70117188 2.2109375 C-29.7762793 2.10652344 -29.7762793 2.10652344 -27.8125 2 C-19.76735093 1.55692193 -11.96705607 1.02238163 -4.08081055 -0.6953125 C-2 -1 -2 -1 0 0 Z " fill="#191919" transform="translate(366,222)"/>
<path d="M0 0 C11.32411067 2.26482213 11.32411067 2.26482213 14.8125 4.3125 C15.49957031 4.70050781 16.18664062 5.08851563 16.89453125 5.48828125 C19.74583498 7.53550675 21.84679283 9.18194289 24 12 C24.45849817 15.1673009 24.15884858 18.14339624 23.8125 21.3125 C23.544375 24.179375 23.27625 27.04625 23 30 C15.41 30 7.82 30 0 30 C0 20.1 0 10.2 0 0 Z " fill="#080808" transform="translate(230,246)"/>
<path d="M0 0 C7.59 0 15.18 0 23 0 C17.03418524 11.93162952 2.52517712 18.46683818 -9.0625 24.0625 C-10.00923584 24.52958374 -10.00923584 24.52958374 -10.97509766 25.00610352 C-13.63901221 26.24464054 -15.477228 27.06796875 -18.43359375 26.68359375 C-18.95050781 26.45800781 -19.46742188 26.23242188 -20 26 C-20.27734375 23.69140625 -20.27734375 23.69140625 -20 21 C-18.12890625 19.40234375 -18.12890625 19.40234375 -15.5625 17.9375 C-8.78954777 13.57656779 -3.61390386 7.22780772 0 0 Z " fill="#212121" transform="translate(264,312)"/>
<path d="M0 0 C0.94875 0.04125 1.8975 0.0825 2.875 0.125 C2.875 0.785 2.875 1.445 2.875 2.125 C2.215 2.125 1.555 2.125 0.875 2.125 C1.01524219 4.60460136 1.1619185 7.08352402 1.3125 9.5625 C1.35181641 10.26955078 1.39113281 10.97660156 1.43164062 11.70507812 C1.35124438 15.21190419 1.35124438 15.21190419 2.875 18.125 C5.54558851 18.26615161 8.19932238 18.16747107 10.875 18.125 C10.875 13.175 10.875 8.225 10.875 3.125 C10.215 3.125 9.555 3.125 8.875 3.125 C8.875 2.465 8.875 1.805 8.875 1.125 C11.58379335 -0.22939668 13.88433268 0.05998549 16.875 0.125 C16.545 0.785 16.215 1.445 15.875 2.125 C15.64225791 5.00410588 15.45527243 7.86646495 15.3125 10.75 C15.26931641 11.55179687 15.22613281 12.35359375 15.18164062 13.1796875 C15.07548543 15.1612511 14.97473145 17.14310271 14.875 19.125 C15.865 19.455 16.855 19.785 17.875 20.125 C17.545 20.455 17.215 20.785 16.875 21.125 C14.94006036 21.125 13.0049415 21.12060827 11.0703125 21.0859375 C8.60244347 21.0761119 8.60244347 21.0761119 5.125 21.75 C1.79483566 22.13424973 0.50474685 22.14788219 -2.125 20.125 C-3.31181726 16.56454823 -3.22189832 13.68691663 -3.1875 9.9375 C-3.17847656 8.66519531 -3.16945313 7.39289063 -3.16015625 6.08203125 C-3.14855469 5.10621094 -3.13695312 4.13039063 -3.125 3.125 C-3.785 2.795 -4.445 2.465 -5.125 2.125 C-3.125 0.125 -3.125 0.125 0 0 Z " fill="#5F5F5F" transform="translate(279.125,280.875)"/>
<path d="M0 0 C6.93 0 13.86 0 21 0 C17.48772352 5.85379413 13.28778935 10.89409958 6.41015625 12.66796875 C3.9375 12.9375 3.9375 12.9375 0 13 C0 8.71 0 4.42 0 0 Z " fill="#252525" transform="translate(230,312)"/>
<path d="M0 0 C1.77007714 -0.08114106 3.54122098 -0.13925505 5.3125 -0.1875 C6.29863281 -0.22230469 7.28476563 -0.25710938 8.30078125 -0.29296875 C11 0 11 0 12.8359375 1.359375 C14.49121968 3.69232304 14.34194954 5.19601378 14 8 C13 10.3125 13 10.3125 12 12 C14.41556126 15.19199167 16.68003538 17.74716687 20 20 C19 21 19 21 16.875 21.5 C12.85196571 20.80034186 11.23825663 18.57857435 8.55078125 15.62890625 C7.07829883 13.89771837 7.07829883 13.89771837 5 13 C5 12.34 5 11.68 5 11 C6.32 10.34 7.64 9.68 9 9 C9 7.35 9 5.7 9 4 C7.68 3.34 6.36 2.68 5 2 C4.67 7.61 4.34 13.22 4 19 C4.99 19.33 5.98 19.66 7 20 C4.09399739 21.25664978 2.20395416 22 -1 22 C-0.505 20.515 -0.505 20.515 0 19 C0.07087607 16.32371967 0.09343734 13.67488987 0.0625 11 C0.05573242 9.91332031 0.05573242 9.91332031 0.04882812 8.8046875 C0.03633323 6.86976355 0.01844691 4.93487635 0 3 C0 2.01 0 1.02 0 0 Z " fill="#4C4C4C" transform="translate(228,281)"/>
<path d="M0 0 C3.12136655 2.01588256 4.64983681 3.43861662 5.4765625 7.125 C5.74208811 11.26160948 5.35142997 14.14127817 2.75 17.4375 C-2.15439289 22.00750247 -2.15439289 22.00750247 -5.921875 21.9921875 C-11.28197162 21.54225238 -11.28197162 21.54225238 -13.69140625 19.72265625 C-16.09661584 16.55639527 -16.10933119 12.87442411 -16 9 C-13.16173645 1.90434113 -7.49008954 -1.69131054 0 0 Z M-9.875 3.375 C-12.4231315 6.52269186 -12.63033265 8.1581939 -12.3515625 12.09765625 C-11.84211548 14.8543307 -11.16409761 16.19658533 -9 18 C-5.6936636 19.05521374 -3.89970645 19.38906225 -0.6875 18 C1.79281031 15.06037297 1.93447897 12.80021954 2 9 C0.63029408 5.37430787 -0.46504879 4.29073435 -3.875 2.4375 C-7.05157403 1.69944955 -7.05157403 1.69944955 -9.875 3.375 Z " fill="#797979" transform="translate(183,281)"/>
<path d="M0 0 C1.03769531 -0.02578125 2.07539062 -0.0515625 3.14453125 -0.078125 C6.61548642 0.29615001 8.42753664 1.13972713 11.1875 3.25 C13.10995196 7.41531258 13.39348542 9.49042878 12.1875 13.9375 C9.81380232 17.86893679 8.35959759 19.31295469 4.1875 21.25 C0.49208181 21.85063271 -3.05999243 22.06695085 -6.8125 22.25 C-6.4825 15.98 -6.1525 9.71 -5.8125 3.25 C-6.4725 3.25 -7.1325 3.25 -7.8125 3.25 C-7.8125 2.59 -7.8125 1.93 -7.8125 1.25 C-5.13594199 -0.08827901 -2.98815948 0.04421444 0 0 Z M-1.8125 2.25 C-3.03767308 7.91642551 -2.90478867 13.48708518 -2.8125 19.25 C2.15035992 19.67080834 2.15035992 19.67080834 6.5625 17.6875 C8.73976285 14.42160572 9.1875 12.17016134 9.1875 8.25 C7.84634601 5.24020117 7.84634601 5.24020117 5.1875 3.25 C1.54567665 2.35944264 1.54567665 2.35944264 -1.8125 2.25 Z " fill="#2B2B2B" transform="translate(78.8125,280.75)"/>
<path d="M0 0 C0.33 0.66 0.66 1.32 1 2 C0.34 2 -0.32 2 -1 2 C-0.67 4.31 -0.34 6.62 0 9 C2.79872437 6.47211993 4.45773019 4.79588866 5 1 C6.98 1 8.96 1 11 1 C10.67 1.66 10.34 2.32 10 3 C9.34 3 8.68 3 8 3 C7.731875 3.5775 7.46375 4.155 7.1875 4.75 C5.98280141 7.0325868 4.59201885 8.9737942 3 11 C6.33562767 15.51290803 8.33289301 17.68206814 14 19 C13.67 19.99 13.34 20.98 13 22 C11.19921875 22.8984375 11.19921875 22.8984375 9 23 C6.89453125 21.6015625 6.89453125 21.6015625 4.8125 19.625 C4.11769531 18.97789062 3.42289062 18.33078125 2.70703125 17.6640625 C1.80048338 16.78033392 0.89521094 15.89521094 0 15 C-0.33 16.65 -0.66 18.3 -1 20 C-0.01 20.33 0.98 20.66 2 21 C-1.22791555 23.1519437 -2.28400809 23.20086443 -6 23 C-5.84152588 22.42024414 -5.68305176 21.84048828 -5.51977539 21.24316406 C-4.71911382 17.78779602 -4.62776918 14.28089697 -4.4375 10.75 C-4.39431641 10.00492187 -4.35113281 9.25984375 -4.30664062 8.4921875 C-4.20103275 6.661651 -4.10005799 4.83084824 -4 3 C-4.99 2.67 -5.98 2.34 -7 2 C-4.69 1.34 -2.38 0.68 0 0 Z " fill="#494949" transform="translate(417,280)"/>
<path d="M0 0 C2.31 0 4.62 0 7 0 C6.79503906 0.54140625 6.59007813 1.0828125 6.37890625 1.640625 C5.86704026 4.82791424 6.76503847 6.76555247 7.9375 9.75 C8.50791016 11.22726562 8.50791016 11.22726562 9.08984375 12.734375 C9.39019531 13.48203125 9.69054687 14.2296875 10 15 C10.6509259 13.75264433 11.29551669 12.50198168 11.9375 11.25 C12.29714844 10.55390625 12.65679687 9.8578125 13.02734375 9.140625 C13.95558182 7.09775567 14.53166578 5.18884624 15 3 C14.34 3 13.68 3 13 3 C13 2.34 13 1.68 13 1 C15.70879335 -0.35439668 18.00933268 -0.06501451 21 0 C20.67 0.66 20.34 1.32 20 2 C19.34 2 18.68 2 18 2 C17.95875 2.928125 17.9175 3.85625 17.875 4.8125 C17.09635961 10.40038985 14.09066779 15.36399831 11 20 C10.01 20.66 9.02 21.32 8 22 C2.62870159 9.51480638 2.62870159 9.51480638 1 3 C0.34 3 -0.32 3 -1 3 C-0.67 2.01 -0.34 1.02 0 0 Z " fill="#4C4C4C" transform="translate(112,281)"/>
<path d="M0 0 C0.66 0 1.32 0 2 0 C2.83857688 2.60258324 3.67103344 5.20685647 4.5 7.8125 C4.73847656 8.55048828 4.97695313 9.28847656 5.22265625 10.04882812 C6.19940136 13.13255196 7 15.74495809 7 19 C7.99 19.33 8.98 19.66 10 20 C9 21 9 21 6.4375 21.0625 C5.633125 21.041875 4.82875 21.02125 4 21 C3.34 18.69 2.68 16.38 2 14 C0.02 14 -1.96 14 -4 14 C-4.6814823 15.89179203 -4.6814823 15.89179203 -5 18 C-4.34 18.66 -3.68 19.32 -3 20 C-4 21 -4 21 -7.5625 21.0625 C-8.696875 21.041875 -9.83125 21.02125 -11 21 C-10.35224609 20.24589844 -10.35224609 20.24589844 -9.69140625 19.4765625 C-7.53315263 16.31644058 -6.2708302 12.93509393 -4.9375 9.375 C-2.2642261 2.2642261 -2.2642261 2.2642261 0 0 Z M-1 7 C-1.33 8.32 -1.66 9.64 -2 11 C-1.01 11 -0.02 11 1 11 C0.34 9.68 -0.32 8.36 -1 7 Z " fill="#383838" transform="translate(377,281)"/>
<path d="M0 0 C1.09570312 0.00902344 2.19140625 0.01804687 3.3203125 0.02734375 C4.16335937 0.03894531 5.00640625 0.05054688 5.875 0.0625 C5.875 0.7225 5.875 1.3825 5.875 2.0625 C0.125 3.0625 0.125 3.0625 -2.125 3.0625 C-2.125 5.0425 -2.125 7.0225 -2.125 9.0625 C0.185 9.0625 2.495 9.0625 4.875 9.0625 C3.625 10.625 3.625 10.625 1.875 12.0625 C-0.3125 11.75 -0.3125 11.75 -2.125 11.0625 C-2.104375 12.01125 -2.08375 12.96 -2.0625 13.9375 C-2.125 17.0625 -2.125 17.0625 -3.125 19.0625 C-0.485 19.0625 2.155 19.0625 4.875 19.0625 C4.545 19.7225 4.215 20.3825 3.875 21.0625 C1.12421116 21.97942961 -0.48448913 22.17136083 -3.3125 22.125 C-5.1996875 22.0940625 -5.1996875 22.0940625 -7.125 22.0625 C-7.22007063 15.62938704 -7.27816726 9.40491995 -6.125 3.0625 C-6.785 3.0625 -7.445 3.0625 -8.125 3.0625 C-8.125 2.4025 -8.125 1.7425 -8.125 1.0625 C-5.36047967 -0.31976016 -3.0788637 -0.03275387 0 0 Z " fill="#767676" transform="translate(142.125,280.9375)"/>
<path d="M0 0 C1.09570312 0.00902344 2.19140625 0.01804687 3.3203125 0.02734375 C4.16335937 0.03894531 5.00640625 0.05054688 5.875 0.0625 C5.875 0.7225 5.875 1.3825 5.875 2.0625 C0.125 3.0625 0.125 3.0625 -2.125 3.0625 C-2.125 5.0425 -2.125 7.0225 -2.125 9.0625 C0.185 9.0625 2.495 9.0625 4.875 9.0625 C3.625 10.625 3.625 10.625 1.875 12.0625 C-0.3125 11.75 -0.3125 11.75 -2.125 11.0625 C-2.104375 12.01125 -2.08375 12.96 -2.0625 13.9375 C-2.125 17.0625 -2.125 17.0625 -3.125 19.0625 C-0.485 19.0625 2.155 19.0625 4.875 19.0625 C4.545 19.7225 4.215 20.3825 3.875 21.0625 C1.12421116 21.97942961 -0.48448913 22.17136083 -3.3125 22.125 C-5.1996875 22.0940625 -5.1996875 22.0940625 -7.125 22.0625 C-7.22007063 15.62938704 -7.27816726 9.40491995 -6.125 3.0625 C-6.785 3.0625 -7.445 3.0625 -8.125 3.0625 C-8.125 2.4025 -8.125 1.7425 -8.125 1.0625 C-5.36047967 -0.31976016 -3.0788637 -0.03275387 0 0 Z " fill="#090909" transform="translate(218.125,280.9375)"/>
<path d="M0 0 C1.09570312 0.00902344 2.19140625 0.01804687 3.3203125 0.02734375 C4.16335937 0.03894531 5.00640625 0.05054688 5.875 0.0625 C5.875 0.7225 5.875 1.3825 5.875 2.0625 C0.125 3.0625 0.125 3.0625 -2.125 3.0625 C-2.125 5.0425 -2.125 7.0225 -2.125 9.0625 C0.185 9.0625 2.495 9.0625 4.875 9.0625 C3.625 10.625 3.625 10.625 1.875 12.0625 C-0.3125 11.75 -0.3125 11.75 -2.125 11.0625 C-2.104375 12.01125 -2.08375 12.96 -2.0625 13.9375 C-2.125 17.0625 -2.125 17.0625 -3.125 19.0625 C-0.485 19.0625 2.155 19.0625 4.875 19.0625 C4.545 19.7225 4.215 20.3825 3.875 21.0625 C1.12421116 21.97942961 -0.48448913 22.17136083 -3.3125 22.125 C-5.1996875 22.0940625 -5.1996875 22.0940625 -7.125 22.0625 C-7.22007063 15.62938704 -7.27816726 9.40491995 -6.125 3.0625 C-6.785 3.0625 -7.445 3.0625 -8.125 3.0625 C-8.125 2.4025 -8.125 1.7425 -8.125 1.0625 C-5.36047967 -0.31976016 -3.0788637 -0.03275387 0 0 Z " fill="#575757" transform="translate(103.125,280.9375)"/>
<path d="M0 0 C1.95803507 -0.05389087 3.91648909 -0.09274217 5.875 -0.125 C7.51082031 -0.15980469 7.51082031 -0.15980469 9.1796875 -0.1953125 C12 0 12 0 14 2 C14.4375 5.375 14.4375 5.375 14 9 C11.75 11.5 11.75 11.5 9 13 C6.6875 12.75 6.6875 12.75 5 12 C5.639375 11.79375 6.27875 11.5875 6.9375 11.375 C9.34925077 10.10461791 9.34925077 10.10461791 9.75 6.875 C9.8325 5.92625 9.915 4.9775 10 4 C7.525 3.01 7.525 3.01 5 2 C4.67 7.61 4.34 13.22 4 19 C4.99 19.33 5.98 19.66 7 20 C4.09399739 21.25664978 2.20395416 22 -1 22 C-0.505 20.515 -0.505 20.515 0 19 C0.07087607 16.32371967 0.09343734 13.67488987 0.0625 11 C0.05573242 9.91332031 0.05573242 9.91332031 0.04882812 8.8046875 C0.03633323 6.86976355 0.01844691 4.93487635 0 3 C0 2.01 0 1.02 0 0 Z " fill="#4C4C4C" transform="translate(193,281)"/>
<path d="M0 0 C0 0.99 0 1.98 0 3 C-2.92824652 3.97608217 -4.95613276 4.08226668 -8 4 C-7.95231597 5.87880872 -7.95231597 5.87880872 -7 8 C-6.01 8.639375 -5.02 9.27875 -4 9.9375 C-1 12 -1 12 -0.125 14.75 C-0.063125 15.86375 -0.063125 15.86375 0 17 C-3.87126131 20.63663942 -6.6999955 21.69999975 -12 22 C-12.66 21.67 -13.32 21.34 -14 21 C-13.34 19.68 -12.68 18.36 -12 17 C-9.69 17.33 -7.38 17.66 -5 18 C-4.67 16.68 -4.34 15.36 -4 14 C-4.928125 13.731875 -5.85625 13.46375 -6.8125 13.1875 C-11.4516129 11.45920304 -11.4516129 11.45920304 -13 9 C-13 5.52391295 -12.23122638 4.25162871 -9.875 1.6875 C-6.35183346 -0.38044558 -4.01922848 -0.31523361 0 0 Z " fill="#747474" transform="translate(345,281)"/>
<path d="M0 0 C1.77503906 0.03480469 1.77503906 0.03480469 3.5859375 0.0703125 C5.36871094 0.09738281 5.36871094 0.09738281 7.1875 0.125 C8.10273438 0.14820313 9.01796875 0.17140625 9.9609375 0.1953125 C8.9709375 1.6803125 8.9709375 1.6803125 7.9609375 3.1953125 C4.3359375 3.3828125 4.3359375 3.3828125 0.9609375 3.1953125 C0.9609375 5.1753125 0.9609375 7.1553125 0.9609375 9.1953125 C3.2709375 9.1953125 5.5809375 9.1953125 7.9609375 9.1953125 C6.9709375 10.6803125 6.9709375 10.6803125 5.9609375 12.1953125 C3.3359375 12.3828125 3.3359375 12.3828125 0.9609375 12.1953125 C0.9609375 14.5053125 0.9609375 16.8153125 0.9609375 19.1953125 C1.9509375 19.5253125 2.9409375 19.8553125 3.9609375 20.1953125 C0.9609375 22.1953125 0.9609375 22.1953125 -4.0390625 22.1953125 C-3.3790625 18.8953125 -2.7190625 15.5953125 -2.0390625 12.1953125 C-2.6990625 11.8653125 -3.3590625 11.5353125 -4.0390625 11.1953125 C-3.8740625 10.4321875 -3.7090625 9.6690625 -3.5390625 8.8828125 C-2.94760854 6.15935014 -2.94760854 6.15935014 -3.0390625 3.1953125 C-3.6990625 2.8653125 -4.3590625 2.5353125 -5.0390625 2.1953125 C-3.0390625 0.1953125 -3.0390625 0.1953125 0 0 Z " fill="#6D6D6D" transform="translate(263.0390625,280.8046875)"/>
<path d="M0 0 C1.21236328 0.01353516 1.21236328 0.01353516 2.44921875 0.02734375 C3.37154297 0.04474609 3.37154297 0.04474609 4.3125 0.0625 C3.6525 1.3825 2.9925 2.7025 2.3125 4.0625 C1.6525 3.7325 0.9925 3.4025 0.3125 3.0625 C-3.22981061 2.67746624 -5.05007342 2.64314041 -8.0625 4.625 C-10.2871142 7.9619213 -10.18780235 10.13155293 -9.6875 14.0625 C-8.75152685 16.08201062 -8.75152685 16.08201062 -6.6875 17.0625 C-4.36718195 17.47684251 -2.03110915 17.81139902 0.3125 18.0625 C1.3025 18.3925 2.2925 18.7225 3.3125 19.0625 C0.2405804 21.46243719 -1.91911008 22.32938493 -5.75 22 C-8.47466661 21.51161636 -9.76768144 21.00904571 -12.125 19.4375 C-14.24755795 16.21121191 -14.62104451 13.91691842 -14.6875 10.0625 C-13.15852022 5.87792377 -11.53291472 3.34571499 -7.6875 1.0625 C-4.80538698 0.10179566 -2.98899956 -0.04331883 0 0 Z " fill="#6C6C6C" transform="translate(403.6875,280.9375)"/>
<path d="M0 0 C6.27 0 12.54 0 19 0 C18.01 1.485 18.01 1.485 17 3 C14.69 3 12.38 3 10 3 C10 8.28 10 13.56 10 19 C10.99 19.33 11.98 19.66 13 20 C10.29120665 21.35439668 7.99066732 21.06501451 5 21 C5.15339844 20.48953125 5.30679687 19.9790625 5.46484375 19.453125 C6.16905403 16.2250662 6.34888204 13.04581999 6.5625 9.75 C6.64628906 8.48671875 6.73007812 7.2234375 6.81640625 5.921875 C6.87699219 4.95765625 6.93757813 3.9934375 7 3 C4.36 3 1.72 3 -1 3 C-0.67 2.01 -0.34 1.02 0 0 Z " fill="#707070" transform="translate(348,281)"/>
<path d="M0 0 C1.134375 0.020625 2.26875 0.04125 3.4375 0.0625 C2.4475 0.5575 2.4475 0.5575 1.4375 1.0625 C1.4375 6.6725 1.4375 12.2825 1.4375 18.0625 C4.0775 18.3925 6.7175 18.7225 9.4375 19.0625 C9.1075 19.7225 8.7775 20.3825 8.4375 21.0625 C4.45184954 21.66863909 0.46475031 21.80814735 -3.5625 22.0625 C-3.2325 15.4625 -2.9025 8.8625 -2.5625 2.0625 C-3.2225 1.7325 -3.8825 1.4025 -4.5625 1.0625 C-3.5625 0.0625 -3.5625 0.0625 0 0 Z " fill="#626262" transform="translate(155.5625,280.9375)"/>
<path d="M0 0 C1.4540625 0.0309375 1.4540625 0.0309375 2.9375 0.0625 C2.6075 0.7225 2.2775 1.3825 1.9375 2.0625 C1.70475791 4.94160588 1.51777243 7.80396495 1.375 10.6875 C1.33181641 11.48929687 1.28863281 12.29109375 1.24414062 13.1171875 C1.13798543 15.0987511 1.03723145 17.08060271 0.9375 19.0625 C3.9075 19.0625 6.8775 19.0625 9.9375 19.0625 C7.25657309 21.74342691 5.54582637 21.44920257 1.8125 21.6875 C0.71679688 21.76226562 -0.37890625 21.83703125 -1.5078125 21.9140625 C-2.35085938 21.96304687 -3.19390625 22.01203125 -4.0625 22.0625 C-3.5675 20.5775 -3.5675 20.5775 -3.0625 19.0625 C-2.91846652 17.72886297 -2.81659577 16.39031954 -2.74609375 15.05078125 C-2.70419922 14.29345703 -2.66230469 13.53613281 -2.61914062 12.75585938 C-2.57982422 11.97017578 -2.54050781 11.18449219 -2.5 10.375 C-2.45681641 9.57771484 -2.41363281 8.78042969 -2.36914062 7.95898438 C-2.26322632 5.99368553 -2.16237449 4.02811504 -2.0625 2.0625 C-2.7225 1.7325 -3.3825 1.4025 -4.0625 1.0625 C-3.0625 0.0625 -3.0625 0.0625 0 0 Z " fill="#3A3A3A" transform="translate(320.0625,280.9375)"/>
<path d="M0 0 C1.4540625 0.0309375 1.4540625 0.0309375 2.9375 0.0625 C2.6075 0.7225 2.2775 1.3825 1.9375 2.0625 C1.70475791 4.94160588 1.51777243 7.80396495 1.375 10.6875 C1.33181641 11.48929687 1.28863281 12.29109375 1.24414062 13.1171875 C1.13798543 15.0987511 1.03723145 17.08060271 0.9375 19.0625 C3.9075 19.0625 6.8775 19.0625 9.9375 19.0625 C7.25657309 21.74342691 5.54582637 21.44920257 1.8125 21.6875 C0.71679688 21.76226562 -0.37890625 21.83703125 -1.5078125 21.9140625 C-2.35085938 21.96304687 -3.19390625 22.01203125 -4.0625 22.0625 C-3.5675 20.5775 -3.5675 20.5775 -3.0625 19.0625 C-2.91846652 17.72886297 -2.81659577 16.39031954 -2.74609375 15.05078125 C-2.70419922 14.29345703 -2.66230469 13.53613281 -2.61914062 12.75585938 C-2.57982422 11.97017578 -2.54050781 11.18449219 -2.5 10.375 C-2.45681641 9.57771484 -2.41363281 8.78042969 -2.36914062 7.95898438 C-2.26322632 5.99368553 -2.16237449 4.02811504 -2.0625 2.0625 C-2.7225 1.7325 -3.3825 1.4025 -4.0625 1.0625 C-3.0625 0.0625 -3.0625 0.0625 0 0 Z " fill="#3C3C3C" transform="translate(304.0625,280.9375)"/>
<path d="M0 0 C0.33 0.66 0.66 1.32 1 2 C0.34 2 -0.32 2 -1 2 C-0.91621094 2.79664063 -0.83242188 3.59328125 -0.74609375 4.4140625 C0.26537786 14.93848858 0.26537786 14.93848858 -1 20 C-0.01 20.33 0.98 20.66 2 21 C-1.22791555 23.1519437 -2.28400809 23.20086443 -6 23 C-5.84152588 22.42024414 -5.68305176 21.84048828 -5.51977539 21.24316406 C-4.71911382 17.78779602 -4.62776918 14.28089697 -4.4375 10.75 C-4.39431641 10.00492187 -4.35113281 9.25984375 -4.30664062 8.4921875 C-4.20103275 6.661651 -4.10005799 4.83084824 -4 3 C-4.99 2.67 -5.98 2.34 -7 2 C-4.69 1.34 -2.38 0.68 0 0 Z " fill="#595959" transform="translate(417,280)"/>
<path d="M0 0 C1.4540625 0.0309375 1.4540625 0.0309375 2.9375 0.0625 C2.6075 0.7225 2.2775 1.3825 1.9375 2.0625 C1.70475791 4.94160588 1.51777243 7.80396495 1.375 10.6875 C1.33181641 11.48929687 1.28863281 12.29109375 1.24414062 13.1171875 C1.13798543 15.0987511 1.03723145 17.08060271 0.9375 19.0625 C1.9275 19.3925 2.9175 19.7225 3.9375 20.0625 C3.6075 20.3925 3.2775 20.7225 2.9375 21.0625 C0.9575 21.0625 -1.0225 21.0625 -3.0625 21.0625 C-2.7325 14.7925 -2.4025 8.5225 -2.0625 2.0625 C-2.7225 1.7325 -3.3825 1.4025 -4.0625 1.0625 C-3.0625 0.0625 -3.0625 0.0625 0 0 Z " fill="#494949" transform="translate(293.0625,280.9375)"/>
<path d="M0 0 C2.5 1.5 2.5 1.5 4 3 C3.34 4.98 2.68 6.96 2 9 C1.443125 8.195625 0.88625 7.39125 0.3125 6.5625 C-1.76652243 3.88049423 -1.76652243 3.88049423 -4.5 3 C-7.02163462 2.83974359 -7.02163462 2.83974359 -9.25 3.9375 C-11.91845216 7.08246148 -11.73300145 9.92827209 -12 14 C-12.33 14 -12.66 14 -13 14 C-13.54372951 10.94152152 -14 8.11227195 -14 5 C-9.43910756 0.09704062 -6.63964208 -0.85672801 0 0 Z " fill="#575757" transform="translate(183,281)"/>
<path d="M0 0 C0.99 0.33 1.98 0.66 3 1 C3.33 6.28 3.66 11.56 4 17 C11.30862751 17.77166267 11.30862751 17.77166267 13.9375 15.625 C15.05923484 13.97750576 15.05923484 13.97750576 16 12 C16.99 12.33 17.98 12.66 19 13 C18.04945229 15.50598942 17.09433287 16.91783912 15.0625 18.6875 C10.43808987 20.66939005 6.01156805 20.69809831 1 21 C1.33 14.73 1.66 8.46 2 2 C1.34 2 0.68 2 0 2 C0 1.34 0 0.68 0 0 Z " fill="#818181" transform="translate(71,282)"/>
<path d="M0 0 C1.25060282 2.25108508 1.9903062 3.9224496 2.3125 6.5 C3.26024043 9.94632883 5.13947714 10.97670334 8 13 C8.66 13.66 9.32 14.32 10 15 C9 16 9 16 6.875 16.5 C2.85196571 15.80034186 1.23825663 13.57857435 -1.44921875 10.62890625 C-2.92170117 8.89771837 -2.92170117 8.89771837 -5 8 C-5 7.34 -5 6.68 -5 6 C-4.360625 5.7525 -3.72125 5.505 -3.0625 5.25 C-0.81258459 4.18437567 -0.81258459 4.18437567 -0.25 1.875 C-0.1675 1.25625 -0.085 0.6375 0 0 Z " fill="#626262" transform="translate(238,286)"/>
<path d="M0 0 C1.95803507 -0.05389087 3.91648909 -0.09274217 5.875 -0.125 C7.51082031 -0.15980469 7.51082031 -0.15980469 9.1796875 -0.1953125 C12 0 12 0 14 2 C14.4375 5.375 14.4375 5.375 14 9 C11.75 11.5 11.75 11.5 9 13 C6.6875 12.75 6.6875 12.75 5 12 C5.639375 11.79375 6.27875 11.5875 6.9375 11.375 C9.34925077 10.10461791 9.34925077 10.10461791 9.75 6.875 C9.8325 5.92625 9.915 4.9775 10 4 C7.525 3.01 7.525 3.01 5 2 C5 3.65 5 5.3 5 7 C4.67 7 4.34 7 4 7 C4 5.02 4 3.04 4 1 C2.68 0.67 1.36 0.34 0 0 Z " fill="#757575" transform="translate(193,281)"/>
<path d="M0 0 C-0.66 1.32 -1.32 2.64 -2 4 C-2.66 3.67 -3.32 3.34 -4 3 C-7.51919011 2.61747934 -9.34136037 2.55497322 -12.3125 4.5625 C-14.46797134 7.67595861 -14.7128051 10.26646636 -15 14 C-15.66 13.01 -16.32 12.02 -17 11 C-17.66 11.99 -18.32 12.98 -19 14 C-18.58791189 8.74587663 -17.82282913 5.71663943 -14 2 C-9.60766715 -0.63539971 -4.95972067 -0.19449885 0 0 Z " fill="#6C6C6C" transform="translate(408,281)"/>
<path d="M0 0 C-0.33 0.66 -0.66 1.32 -1 2 C-1.66 2 -2.32 2 -3 2 C-3.061875 2.969375 -3.12375 3.93875 -3.1875 4.9375 C-3.85625799 9.88225603 -6.42590696 13.81116224 -9 18 C-9.99 17.67 -10.98 17.34 -12 17 C-11.36352441 15.72704881 -10.71858197 14.45827029 -10.0625 13.1953125 C-9.711875 12.51210938 -9.36125 11.82890625 -9 11.125 C-8.649375 10.44695312 -8.29875 9.76890625 -7.9375 9.0703125 C-7.02514354 7.05552533 -6.46438758 5.15746731 -6 3 C-6.66 3 -7.32 3 -8 3 C-8 2.34 -8 1.68 -8 1 C-5.29120665 -0.35439668 -2.99066732 -0.06501451 0 0 Z " fill="#9B9B9B" transform="translate(133,281)"/>
<path d="M0 0 C0.66 0 1.32 0 2 0 C2.66 2.97 3.32 5.94 4 9 C3.34 9 2.68 9 2 9 C2 9.99 2 10.98 2 12 C0.35 12 -1.3 12 -3 12 C-2.67 11.34 -2.34 10.68 -2 10 C-1.01 10.33 -0.02 10.66 1 11 C0.34 10.34 -0.32 9.68 -1 9 C-1.99 9 -2.98 9 -4 9 C-2.25 2.25 -2.25 2.25 0 0 Z " fill="#5F5F5F" transform="translate(377,281)"/>
<path d="M0 0 C0.99 0.33 1.98 0.66 3 1 C3 6.28 3 11.56 3 17 C6.3 17.33 9.6 17.66 13 18 C12.67 18.66 12.34 19.32 12 20 C9.24921116 20.91692961 7.64051087 21.10886083 4.8125 21.0625 C2.9253125 21.0315625 2.9253125 21.0315625 1 21 C0.90492937 14.56688704 0.84683274 8.34241995 2 2 C1.34 2 0.68 2 0 2 C0 1.34 0 0.68 0 0 Z " fill="#888888" transform="translate(210,282)"/>
<path d="M0 0 C6.27 0 12.54 0 19 0 C18.67 0.66 18.34 1.32 18 2 C15.03 2 12.06 2 9 2 C9 6.62 9 11.24 9 16 C8.67 16 8.34 16 8 16 C8 11.38 8 6.76 8 2 C5.36 2 2.72 2 0 2 C0 1.34 0 0.68 0 0 Z " fill="#3A3A3A" transform="translate(348,281)"/>
<path d="M0 0 C0.94875 0.04125 1.8975 0.0825 2.875 0.125 C2.875 0.785 2.875 1.445 2.875 2.125 C2.215 2.125 1.555 2.125 0.875 2.125 C0.875 7.075 0.875 12.025 0.875 17.125 C0.545 17.125 0.215 17.125 -0.125 17.125 C-0.125 13.165 -0.125 9.205 -0.125 5.125 C-0.785 5.125 -1.445 5.125 -2.125 5.125 C-2.125 9.085 -2.125 13.045 -2.125 17.125 C-2.455 17.125 -2.785 17.125 -3.125 17.125 C-3.125 12.505 -3.125 7.885 -3.125 3.125 C-3.785 2.795 -4.445 2.465 -5.125 2.125 C-3.125 0.125 -3.125 0.125 0 0 Z " fill="#999999" transform="translate(279.125,280.875)"/>
<path d="M0 0 C2.31 0 4.62 0 7 0 C6.7834375 0.8353125 6.7834375 0.8353125 6.5625 1.6875 C5.95647335 4.04945411 5.95647335 4.04945411 5.5625 6.6875 C5.376875 7.450625 5.19125 8.21375 5 9 C4.01 9.495 4.01 9.495 3 10 C2.34 7.69 1.68 5.38 1 3 C0.34 3 -0.32 3 -1 3 C-0.67 2.01 -0.34 1.02 0 0 Z " fill="#616161" transform="translate(112,281)"/>
<path d="M0 0 C1.65322266 0.01740234 1.65322266 0.01740234 3.33984375 0.03515625 C4.99693359 0.04869141 4.99693359 0.04869141 6.6875 0.0625 C7.54214844 0.07410156 8.39679688 0.08570313 9.27734375 0.09765625 C9.27734375 0.75765625 9.27734375 1.41765625 9.27734375 2.09765625 C5.95199618 3.20610544 3.655518 2.94219981 0.27734375 2.09765625 C0.27734375 4.40765625 0.27734375 6.71765625 0.27734375 9.09765625 C-0.71265625 9.59265625 -0.71265625 9.59265625 -1.72265625 10.09765625 C-1.72265625 7.45765625 -1.72265625 4.81765625 -1.72265625 2.09765625 C-2.38265625 1.76765625 -3.04265625 1.43765625 -3.72265625 1.09765625 C-2.72265625 0.09765625 -2.72265625 0.09765625 0 0 Z " fill="#060606" transform="translate(138.72265625,280.90234375)"/>
<path d="M0 0 C0.33 0.99 0.66 1.98 1 3 C3.31 3 5.62 3 8 3 C7.67 3.99 7.34 4.98 7 6 C7 5.34 7 4.68 7 4 C5.02 4 3.04 4 1 4 C0.3185177 5.89179203 0.3185177 5.89179203 0 8 C0.66 8.66 1.32 9.32 2 10 C1 11 1 11 -2.5625 11.0625 C-3.696875 11.041875 -4.83125 11.02125 -6 11 C-5.566875 10.484375 -5.13375 9.96875 -4.6875 9.4375 C-2.59680969 6.417614 -1.37473935 3.4041165 0 0 Z " fill="#919191" transform="translate(372,291)"/>
<path d="M0 0 C2.31 0.33 4.62 0.66 7 1 C7 1.33 7 1.66 7 2 C5.35 2.33 3.7 2.66 2 3 C1.67 11.91 1.34 20.82 1 30 C0.67 30 0.34 30 0 30 C0 20.1 0 10.2 0 0 Z " fill="#474747" transform="translate(230,246)"/>
<path d="M0 0 C1.98 0 3.96 0 6 0 C5.67 0.66 5.34 1.32 5 2 C4.34 2 3.68 2 3 2 C2.773125 2.5775 2.54625 3.155 2.3125 3.75 C0.66961977 6.5663661 -1.39533227 8.08077114 -4 10 C-4 9.01 -4 8.02 -4 7 C-3 6 -2 5 -1 4 C-0.28552357 1.89667109 -0.28552357 1.89667109 0 0 Z " fill="#909090" transform="translate(422,281)"/>
<path d="M0 0 C0 0.99 0 1.98 0 3 C-3 4 -3 4 -5.5625 3.875 C-6.366875 3.91625 -7.17125 3.9575 -8 4 C-8.66 4.99 -9.32 5.98 -10 7 C-10.33 5.68 -10.66 4.36 -11 3 C-7.48550811 -0.37391222 -4.73940561 -0.27342725 0 0 Z " fill="#969696" transform="translate(345,281)"/>
<path d="M0 0 C-1.28716647 1.00578589 -2.57988658 2.00446798 -3.875 3 C-4.95394531 3.8353125 -4.95394531 3.8353125 -6.0546875 4.6875 C-8 6 -8 6 -10 6 C-9.67 4.68 -9.34 3.36 -9 2 C-9.99 1.67 -10.98 1.34 -12 1 C-10.56496445 0.63597631 -9.12683494 0.28413409 -7.6875 -0.0625 C-6.88699219 -0.25972656 -6.08648437 -0.45695312 -5.26171875 -0.66015625 C-3 -1 -3 -1 0 0 Z " fill="#686868" transform="translate(277,395)"/>
<path d="M0 0 C0.66 0 1.32 0 2 0 C2 0.99 2 1.98 2 3 C2.99 3.33 3.98 3.66 5 4 C5.6875 6.0625 5.6875 6.0625 6 8 C1.25 7.25 1.25 7.25 -1 5 C-0.625 2.375 -0.625 2.375 0 0 Z " fill="#525252" transform="translate(333,285)"/>
<path d="M0 0 C1.98 0 3.96 0 6 0 C6.33 2.31 6.66 4.62 7 7 C6.01 7.33 5.02 7.66 4 8 C3.71125 7.195625 3.4225 6.39125 3.125 5.5625 C2.26737432 2.8673532 2.26737432 2.8673532 0 2 C0 1.34 0 0.68 0 0 Z " fill="#4F4F4F" transform="translate(235,282)"/>
<path d="M0 0 C1.95803507 -0.05389087 3.91648909 -0.09274217 5.875 -0.125 C7.51082031 -0.15980469 7.51082031 -0.15980469 9.1796875 -0.1953125 C12 0 12 0 14 2 C10.33694766 2.74926071 7.57644848 3.2380014 4 2 C4 3.98 4 5.96 4 8 C3.67 8 3.34 8 3 8 C3 5.69 3 3.38 3 1 C2.01 0.67 1.02 0.34 0 0 Z " fill="#8B8B8B" transform="translate(73,281)"/>
<path d="M0 0 C0.33 0 0.66 0 1 0 C1.33 3.63 1.66 7.26 2 11 C1.01 11 0.02 11 -1 11 C-1.22174933 9.54364629 -1.42698698 8.08477044 -1.625 6.625 C-1.74101562 5.81289063 -1.85703125 5.00078125 -1.9765625 4.1640625 C-1.98429688 3.44992187 -1.99203125 2.73578125 -2 2 C-1.34 1.34 -0.68 0.68 0 0 Z " fill="#3C3C3C" transform="translate(169,288)"/>
<path d="M0 0 C1.32 0.99 2.64 1.98 4 3 C3.34 5.31 2.68 7.62 2 10 C1.34 10 0.68 10 0 10 C0 6.7 0 3.4 0 0 Z " fill="#3A3A3A" transform="translate(213,289)"/>
<path d="M0 0 C0.66 0 1.32 0 2 0 C2 2.97 2 5.94 2 9 C1.01 9.33 0.02 9.66 -1 10 C-1.125 2.25 -1.125 2.25 0 0 Z " fill="#363636" transform="translate(186,286)"/>
<path d="M0 0 C3.3 0.33 6.6 0.66 10 1 C7.31907309 3.68092691 5.60832637 3.38670257 1.875 3.625 C0.77929688 3.69976562 -0.31640625 3.77453125 -1.4453125 3.8515625 C-2.28835938 3.90054687 -3.13140625 3.94953125 -4 4 C-3.67 3.01 -3.34 2.02 -3 1 C-2.01 1.33 -1.02 1.66 0 2 C0 1.34 0 0.68 0 0 Z " fill="#6B6A6B" transform="translate(320,299)"/>
<path d="M0 0 C0.99 0.33 1.98 0.66 3 1 C2.0409375 1.7425 2.0409375 1.7425 1.0625 2.5 C-1.81515269 5.98806387 -1.70230736 8.53461041 -2 13 C-2.33 13 -2.66 13 -3 13 C-3.54372951 9.94152152 -4 7.11227195 -4 4 C-2 1.8125 -2 1.8125 0 0 Z " fill="#A3A3A3" transform="translate(173,282)"/>
<path d="M0 0 C0.33 1.32 0.66 2.64 1 4 C1.66 4 2.32 4 3 4 C3.33 5.65 3.66 7.3 4 9 C0.125 8.125 0.125 8.125 -1 7 C-1.125 4 -1.125 4 -1 1 C-0.67 0.67 -0.34 0.34 0 0 Z " fill="#292929" transform="translate(391,291)"/>
<path d="M0 0 C-2.64 1.65 -5.28 3.3 -8 5 C-8 4.01 -8 3.02 -8 2 C-9.65 2 -11.3 2 -13 2 C-13 1.67 -13 1.34 -13 1 C-11.20994059 0.63779734 -9.41787943 0.28547531 -7.625 -0.0625 C-6.12839844 -0.35833984 -6.12839844 -0.35833984 -4.6015625 -0.66015625 C-2 -1 -2 -1 0 0 Z " fill="#7C7C7C" transform="translate(366,222)"/>
<path d="M0 0 C0.66 0 1.32 0 2 0 C2 1.98 2 3.96 2 6 C2.66 6.33 3.32 6.66 4 7 C3 8 3 8 0.4375 8.0625 C-0.366875 8.041875 -1.17125 8.02125 -2 8 C-1.34 5.36 -0.68 2.72 0 0 Z " fill="#4F4F4F" transform="translate(261,295)"/>
<path d="M0 0 C0.33 0 0.66 0 1 0 C1 6.27 1 12.54 1 19 C0.01 19.33 -0.98 19.66 -2 20 C-1.505 18.515 -1.505 18.515 -1 17 C-0.85596652 15.66636297 -0.75409577 14.32781954 -0.68359375 12.98828125 C-0.64169922 12.23095703 -0.59980469 11.47363281 -0.55664062 10.69335938 C-0.51732422 9.90767578 -0.47800781 9.12199219 -0.4375 8.3125 C-0.39431641 7.51521484 -0.35113281 6.71792969 -0.30664062 5.89648438 C-0.20072632 3.93118553 -0.09987449 1.96561504 0 0 Z " fill="#696969" transform="translate(302,283)"/>
<path d="M0 0 C0.433125 0.45375 0.86625 0.9075 1.3125 1.375 C3.10798342 3.20024334 3.10798342 3.20024334 6 5 C3 7 3 7 0.875 6.75 C-1 6 -1 6 -2 4 C-1.34 4 -0.68 4 0 4 C0 2.68 0 1.36 0 0 Z " fill="#686868" transform="translate(171,295)"/>
<path d="M0 0 C0.99 0.33 1.98 0.66 3 1 C2.34 1 1.68 1 1 1 C1 2.98 1 4.96 1 7 C3.31 7 5.62 7 8 7 C7.01 7.99 6.02 8.98 5 10 C2.525 9.01 2.525 9.01 0 8 C0 5.36 0 2.72 0 0 Z " fill="#A9A9A9" transform="translate(100,283)"/>
<path d="M0 0 C0.99 0.33 1.98 0.66 3 1 C2.34 1 1.68 1 1 1 C1 2.98 1 4.96 1 7 C3.31 7 5.62 7 8 7 C7.01 7.99 6.02 8.98 5 10 C2.525 9.01 2.525 9.01 0 8 C0 5.36 0 2.72 0 0 Z " fill="#A7A7A7" transform="translate(215,283)"/>
<path d="M0 0 C0.99 0.33 1.98 0.66 3 1 C2.34 1 1.68 1 1 1 C1 2.98 1 4.96 1 7 C3.31 7 5.62 7 8 7 C7.01 7.99 6.02 8.98 5 10 C2.525 9.01 2.525 9.01 0 8 C0 5.36 0 2.72 0 0 Z " fill="#A6A6A6" transform="translate(139,283)"/>
<path d="M0 0 C1.4606285 2.64738916 2 3.89448334 2 7 C1.34 7 0.68 7 0 7 C0 7.99 0 8.98 0 10 C-1.65 10 -3.3 10 -5 10 C-4.67 9.34 -4.34 8.68 -4 8 C-3.01 8.33 -2.02 8.66 -1 9 C-1.20625 8.443125 -1.4125 7.88625 -1.625 7.3125 C-2.10695211 4.340462 -1.26565028 2.68020059 0 0 Z " fill="#7E7E7E" transform="translate(379,283)"/>
<path d="M0 0 C2.97 0 5.94 0 9 0 C8.34 1.32 7.68 2.64 7 4 C4.36 3.34 1.72 2.68 -1 2 C-0.67 1.34 -0.34 0.68 0 0 Z " fill="#6B6B6B" transform="translate(399,281)"/>
<path d="M0 0 C0.99 0.66 1.98 1.32 3 2 C3 2.66 3 3.32 3 4 C2.01 4.33 1.02 4.66 0 5 C-0.66 5.66 -1.32 6.32 -2 7 C-2.66 6.01 -3.32 5.02 -4 4 C-2.68 2.68 -1.36 1.36 0 0 Z " fill="#515151" transform="translate(290,325)"/>
<path d="M0 0 C1.65 0.33 3.3 0.66 5 1 C4.67 1.99 4.34 2.98 4 4 C2.125 4.875 2.125 4.875 0 5 C-1.75 3.5625 -1.75 3.5625 -3 2 C-2.34 2 -1.68 2 -1 2 C-0.67 1.34 -0.34 0.68 0 0 Z " fill="#868686" transform="translate(426,298)"/>
<path d="M0 0 C0.66 0.33 1.32 0.66 2 1 C2 1.66 2 2.32 2 3 C3.32 3.33 4.64 3.66 6 4 C5.67 4.33 5.34 4.66 5 5 C2.66055264 4.71269945 0.3260857 4.38063221 -2 4 C-1.34 2.68 -0.68 1.36 0 0 Z " fill="#5C5C5C" transform="translate(333,298)"/>
<path d="M0 0 C1.98 0.66 3.96 1.32 6 2 C5.67 2.66 5.34 3.32 5 4 C2.67843403 4.40729228 0.3431213 4.74438677 -2 5 C-1.34 3.35 -0.68 1.7 0 0 Z " fill="#7C7C7C" transform="translate(229,298)"/>
<path d="M0 0 C1.32 0.66 2.64 1.32 4 2 C3.34 3.98 2.68 5.96 2 8 C0.68 6.35 -0.64 4.7 -2 3 C-1.34 2.34 -0.68 1.68 0 1 C0 0.67 0 0.34 0 0 Z " fill="#6D6D6D" transform="translate(183,282)"/>
<path d="M0 0 C1.4540625 0.0309375 1.4540625 0.0309375 2.9375 0.0625 C2.6075 0.7225 2.2775 1.3825 1.9375 2.0625 C1.2775 2.0625 0.6175 2.0625 -0.0625 2.0625 C-0.0625 3.3825 -0.0625 4.7025 -0.0625 6.0625 C-0.7225 6.0625 -1.3825 6.0625 -2.0625 6.0625 C-2.0625 4.7425 -2.0625 3.4225 -2.0625 2.0625 C-2.7225 1.7325 -3.3825 1.4025 -4.0625 1.0625 C-3.0625 0.0625 -3.0625 0.0625 0 0 Z " fill="#676767" transform="translate(130.0625,280.9375)"/>
<path d="M0 0 C0 1.98 0 3.96 0 6 C-2.66666667 4.66666667 -5.33333333 3.33333333 -8 2 C-2.25 0 -2.25 0 0 0 Z " fill="#838383" transform="translate(252,349)"/>
<path d="M0 0 C2.475 0.495 2.475 0.495 5 1 C5.33 2.32 5.66 3.64 6 5 C3.5625 4.1875 3.5625 4.1875 1 3 C0.67 2.01 0.34 1.02 0 0 Z " fill="#353535" transform="translate(420,296)"/>
<path d="M0 0 C0.33 0.99 0.66 1.98 1 3 C3.31 3 5.62 3 8 3 C7.67 3.99 7.34 4.98 7 6 C7 5.34 7 4.68 7 4 C5.02 4 3.04 4 1 4 C1 4.66 1 5.32 1 6 C0.34 6 -0.32 6 -1 6 C-0.67 4.02 -0.34 2.04 0 0 Z " fill="#7F7F7F" transform="translate(372,291)"/>
<path d="M0 0 C0.99 0.33 1.98 0.66 3 1 C4.125 7.75 4.125 7.75 3 10 C2.34 10 1.68 10 1 10 C1.33 7.36 1.66 4.72 2 2 C1.34 2 0.68 2 0 2 C0 1.34 0 0.68 0 0 Z " fill="#8F8F8F" transform="translate(125,282)"/>
<path d="M0 0 C3.96 0 7.92 0 12 0 C12 0.66 12 1.32 12 2 C10.0625 2.5625 10.0625 2.5625 8 3 C7.67 2.67 7.34 2.34 7 2 C4.67182036 1.63239269 2.3381615 1.29758419 0 1 C0 0.67 0 0.34 0 0 Z " fill="#909090" transform="translate(212,281)"/>
<path d="M0 0 C3.96 0 7.92 0 12 0 C12 0.66 12 1.32 12 2 C10.0625 2.5625 10.0625 2.5625 8 3 C7.67 2.67 7.34 2.34 7 2 C4.67182036 1.63239269 2.3381615 1.29758419 0 1 C0 0.67 0 0.34 0 0 Z " fill="#939393" transform="translate(136,281)"/>
<path d="M0 0 C3.96 0 7.92 0 12 0 C12 0.66 12 1.32 12 2 C10.0625 2.5625 10.0625 2.5625 8 3 C7.67 2.67 7.34 2.34 7 2 C4.67182036 1.63239269 2.3381615 1.29758419 0 1 C0 0.67 0 0.34 0 0 Z " fill="#8E8E8E" transform="translate(97,281)"/>
<path d="M0 0 C1.485 0.99 1.485 0.99 3 2 C2.67 3.98 2.34 5.96 2 8 C1.01 7.67 0.02 7.34 -1 7 C-1.04254356 5.00045254 -1.04080783 2.99958364 -1 1 C-0.67 0.67 -0.34 0.34 0 0 Z " fill="#5D5D5D" transform="translate(138,290)"/>
<path d="M0 0 C0 0.66 0 1.32 0 2 C-4.47058824 6 -4.47058824 6 -7 6 C-5.52522876 2.59668175 -4.14385429 0 0 0 Z " fill="#8E8E8E" transform="translate(398,282)"/>
</svg>
